<?xml version="1.0" encoding="UTF-8"?>
<svg id="Layer_1" data-name="Layer 1" xmlns="http://www.w3.org/2000/svg" viewBox="850 300 200 300">
  <defs>
    <style>
      .cls-1 {
        fill: #f15a24;
      }

      .cls-2 {
        fill: #fff;
      }
    </style>
  </defs>
  <path class="cls-2" d="M1228.34,344.45v28.01h-145.88v-53.51h-55.16l-28.53,27.11-28.57,27.14h61.26v47.73h-155.43v.14h94.24l-28.57,25.54-28.34,25.32h118.1v50.99h-112.64v.17h-48.55v.02l-9.04,13.61-24.73,37.19h414.12v-229.46h-22.28ZM1228.34,548.42h-145.88v-30.89h145.88v30.89ZM1228.34,492.03h-145.88v-32.93h145.88v32.93ZM1228.34,433.6h-145.88v-35.64h145.88v35.64Z"/>
  <path class="cls-1" d="M927.34,318.92v.03h-102.3v53.51h-145.88v-28.01h-22.29v229.46h179.63l24.73-37.19,9.04-13.61v-50.97h42.86l.23-.21,28.34-25.32,28.57-25.54h-100v-47.68h99.51l.13-.19h.29l28.57-27.14,28.53-27.11.04-.03h-100ZM825.04,548.42h-145.88v-30.89h145.88v30.89ZM825.04,492.03h-145.88v-32.93h145.88v32.93ZM825.04,433.6h-145.88v-35.64h145.88v35.64Z"/>
</svg>