<?xml version="1.0" encoding="UTF-8"?>
<svg id="Layer_1" data-name="Layer 1" xmlns="http://www.w3.org/2000/svg" viewBox="0 0 1920 1080">
  <defs>
    <style>
      .cls-1 {
        fill: #f15a24;
      }

      .cls-2 {
        fill: #333;
      }
    </style>
  </defs>
  <g>
    <path class="cls-2" d="M520.11,629.9h97.4v26.53h-65.18v29.94h61.77v26.53h-61.77v52.49h-32.21v-135.49Z"/>
    <path class="cls-2" d="M629.25,629.9h99.29v26.53h-67.08v27.86h63.48v26.15h-63.48v28.42h68.03v26.53h-100.24v-135.49Z"/>
    <path class="cls-2" d="M742.57,629.9h61.58c17.81,0,31.04,3.73,39.7,11.18,8.65,7.46,12.98,18.19,12.98,32.21s-4.33,24.73-12.98,32.12c-8.65,7.39-21.89,11.09-39.7,11.09h-29.37v48.89h-32.21v-135.49ZM802.45,691.1c7.07,0,12.41-1.36,16.01-4.07,3.6-2.71,5.4-7.11,5.4-13.17s-1.8-10.48-5.4-13.26c-3.6-2.78-8.94-4.17-16.01-4.17h-27.67v34.68h27.67ZM795.06,708.73h33.73l32.02,56.66h-37.33l-28.42-56.66Z"/>
    <path class="cls-2" d="M869.91,668.36c3.28-8.72,7.96-16.11,14.02-22.17,6.06-6.06,13.33-10.74,21.79-14.02,8.46-3.28,17.87-4.93,28.23-4.93s19.96,1.64,28.42,4.93c8.46,3.29,15.73,7.96,21.79,14.02,6.06,6.06,10.74,13.45,14.02,22.17,3.28,8.72,4.93,18.51,4.93,29.37s-1.64,20.81-4.93,29.47c-3.29,8.65-7.93,16.01-13.93,22.08-6,6.06-13.26,10.71-21.79,13.93-8.53,3.22-18.04,4.83-28.52,4.83s-19.8-1.61-28.33-4.83c-8.53-3.22-15.79-7.89-21.79-14.02-6-6.13-10.64-13.52-13.93-22.17-3.29-8.65-4.93-18.41-4.93-29.28s1.64-20.66,4.93-29.37ZM900.7,716.12c1.71,5.43,4.14,10.04,7.3,13.83,3.16,3.79,6.92,6.67,11.27,8.62,4.36,1.96,9.25,2.94,14.69,2.94s10.36-.98,14.78-2.94c4.42-1.96,8.18-4.83,11.27-8.62,3.09-3.79,5.5-8.4,7.2-13.83,1.71-5.43,2.56-11.56,2.56-18.38s-.85-13.14-2.56-18.57c-1.71-5.43-4.11-10.04-7.2-13.83-3.1-3.79-6.85-6.66-11.27-8.62-4.42-1.96-9.35-2.94-14.78-2.94s-10.17.98-14.59,2.94c-4.42,1.96-8.21,4.83-11.37,8.62-3.16,3.79-5.59,8.4-7.3,13.83-1.71,5.43-2.56,11.62-2.56,18.57s.85,12.95,2.56,18.38Z"/>
    <path class="cls-1" d="M1015.06,629.9h32.21v51.73l45.86-51.73h38.85l-50.4,57.42,53.63,78.07h-37.71l-37.52-55.33-12.7,13.45v41.88h-32.21v-135.49Z"/>
    <path class="cls-1" d="M1127.05,668.36c3.28-8.72,7.96-16.11,14.02-22.17,6.06-6.06,13.33-10.74,21.79-14.02,8.46-3.28,17.87-4.93,28.23-4.93s19.96,1.64,28.42,4.93c8.46,3.29,15.73,7.96,21.79,14.02,6.06,6.06,10.74,13.45,14.02,22.17,3.28,8.72,4.93,18.51,4.93,29.37s-1.64,20.81-4.93,29.47c-3.29,8.65-7.93,16.01-13.93,22.08-6,6.06-13.26,10.71-21.79,13.93-8.53,3.22-18.04,4.83-28.52,4.83s-19.8-1.61-28.33-4.83c-8.53-3.22-15.79-7.89-21.79-14.02-6-6.13-10.64-13.52-13.93-22.17-3.29-8.65-4.93-18.41-4.93-29.28s1.64-20.66,4.93-29.37ZM1157.84,716.12c1.71,5.43,4.14,10.04,7.3,13.83,3.16,3.79,6.92,6.67,11.27,8.62,4.36,1.96,9.25,2.94,14.69,2.94s10.36-.98,14.78-2.94c4.42-1.96,8.18-4.83,11.27-8.62,3.09-3.79,5.5-8.4,7.2-13.83,1.71-5.43,2.56-11.56,2.56-18.38s-.85-13.14-2.56-18.57c-1.71-5.43-4.11-10.04-7.2-13.83-3.1-3.79-6.85-6.66-11.27-8.62-4.42-1.96-9.35-2.94-14.78-2.94s-10.17.98-14.59,2.94c-4.42,1.96-8.21,4.83-11.37,8.62-3.16,3.79-5.59,8.4-7.3,13.83-1.71,5.43-2.56,11.62-2.56,18.57s.85,12.95,2.56,18.38Z"/>
    <path class="cls-1" d="M1272.01,629.9h48.7c23.12,0,40.87,5.84,53.25,17.53,12.38,11.69,18.57,28.46,18.57,50.31s-6.19,38.75-18.57,50.31c-12.38,11.56-30.13,17.34-53.25,17.34h-48.7v-135.49ZM1320.14,738.86c13.26,0,23.08-3.41,29.47-10.23,6.38-6.82,9.57-17.18,9.57-31.08s-3.16-24.38-9.47-31.08c-6.32-6.69-16.17-10.04-29.56-10.04h-15.92v82.43h15.92Z"/>
  </g>
  <path class="cls-2" d="M1228.34,344.45v28.01h-145.88v-53.51h-55.16l-28.53,27.11-28.57,27.14h61.26v47.73h-155.43v.14h94.24l-28.57,25.54-28.34,25.32h118.1v50.99h-112.64v.17h-48.55v.02l-9.04,13.61-24.73,37.19h414.12v-229.46h-22.28ZM1228.34,548.42h-145.88v-30.89h145.88v30.89ZM1228.34,492.03h-145.88v-32.93h145.88v32.93ZM1228.34,433.6h-145.88v-35.64h145.88v35.64Z"/>
  <path class="cls-1" d="M927.34,318.92v.03h-102.3v53.51h-145.88v-28.01h-22.29v229.46h179.63l24.73-37.19,9.04-13.61v-50.97h42.86l.23-.21,28.34-25.32,28.57-25.54h-100v-47.68h99.51l.13-.19h.29l28.57-27.14,28.53-27.11.04-.03h-100ZM825.04,548.42h-145.88v-30.89h145.88v30.89ZM825.04,492.03h-145.88v-32.93h145.88v32.93ZM825.04,433.6h-145.88v-35.64h145.88v35.64Z"/>
</svg>